<?xml version="1.0" encoding="UTF-8" standalone="no"?>
<!DOCTYPE svg PUBLIC "-//W3C//DTD SVG 1.1//EN"
 "http://www.w3.org/Graphics/SVG/1.1/DTD/svg11.dtd">
<!-- Generated by graphviz version 6.0.2 (20221011.1828)
 -->
<!-- Pages: 1 -->
<svg width="442pt" height="404pt"
 viewBox="0.00 0.00 442.00 404.00" xmlns="http://www.w3.org/2000/svg" xmlns:xlink="http://www.w3.org/1999/xlink">
<g id="graph0" class="graph" transform="scale(1 1) rotate(0) translate(4 400)">
<polygon fill="white" stroke="none" points="-4,4 -4,-400 438,-400 438,4 -4,4"/>
<!-- 0 -->
<g id="node1" class="node">
<title>0</title>
<ellipse fill="cyan" stroke="cyan" cx="253" cy="-378" rx="28.7" ry="18"/>
<text text-anchor="middle" x="253" y="-374.3" font-family="Times New Roman,serif" font-size="14.00">var a</text>
</g>
<!-- 1 -->
<g id="node2" class="node">
<title>1</title>
<ellipse fill="cyan" stroke="cyan" cx="177" cy="-306" rx="27" ry="18"/>
<text text-anchor="middle" x="177" y="-302.3" font-family="Times New Roman,serif" font-size="14.00">:</text>
</g>
<!-- 0&#45;&gt;1 -->
<g id="edge1" class="edge">
<title>0&#45;&gt;1</title>
<path fill="none" stroke="black" d="M237.25,-362.5C226.41,-352.51 211.84,-339.09 199.74,-327.94"/>
<polygon fill="black" stroke="black" points="201.94,-325.21 192.21,-321.01 197.19,-330.36 201.94,-325.21"/>
</g>
<!-- 2 -->
<g id="node3" class="node">
<title>2</title>
<ellipse fill="cyan" stroke="cyan" cx="253" cy="-306" rx="31.4" ry="18"/>
<text text-anchor="middle" x="253" y="-302.3" font-family="Times New Roman,serif" font-size="14.00">Array</text>
</g>
<!-- 0&#45;&gt;2 -->
<g id="edge2" class="edge">
<title>0&#45;&gt;2</title>
<path fill="none" stroke="black" d="M253,-359.7C253,-351.98 253,-342.71 253,-334.11"/>
<polygon fill="black" stroke="black" points="256.5,-334.1 253,-324.1 249.5,-334.1 256.5,-334.1"/>
</g>
<!-- 3 -->
<g id="node4" class="node">
<title>3</title>
<ellipse fill="cyan" stroke="cyan" cx="329" cy="-306" rx="27" ry="18"/>
<text text-anchor="middle" x="329" y="-302.3" font-family="Times New Roman,serif" font-size="14.00">;</text>
</g>
<!-- 0&#45;&gt;3 -->
<g id="edge3" class="edge">
<title>0&#45;&gt;3</title>
<path fill="none" stroke="black" d="M268.75,-362.5C279.59,-352.51 294.16,-339.09 306.26,-327.94"/>
<polygon fill="black" stroke="black" points="308.81,-330.36 313.79,-321.01 304.06,-325.21 308.81,-330.36"/>
</g>
<!-- 4 -->
<g id="node5" class="node">
<title>4</title>
<ellipse fill="cyan" stroke="cyan" cx="181" cy="-234" rx="27" ry="18"/>
<text text-anchor="middle" x="181" y="-230.3" font-family="Times New Roman,serif" font-size="14.00">&lt;</text>
</g>
<!-- 2&#45;&gt;4 -->
<g id="edge4" class="edge">
<title>2&#45;&gt;4</title>
<path fill="none" stroke="black" d="M237.73,-290.15C227.67,-280.37 214.33,-267.4 203.11,-256.5"/>
<polygon fill="black" stroke="black" points="205.36,-253.81 195.75,-249.35 200.49,-258.83 205.36,-253.81"/>
</g>
<!-- 5 -->
<g id="node6" class="node">
<title>5</title>
<ellipse fill="cyan" stroke="cyan" cx="253" cy="-234" rx="27.1" ry="18"/>
<text text-anchor="middle" x="253" y="-230.3" font-family="Times New Roman,serif" font-size="14.00">Map</text>
</g>
<!-- 2&#45;&gt;5 -->
<g id="edge5" class="edge">
<title>2&#45;&gt;5</title>
<path fill="none" stroke="black" d="M253,-287.7C253,-279.98 253,-270.71 253,-262.11"/>
<polygon fill="black" stroke="black" points="256.5,-262.1 253,-252.1 249.5,-262.1 256.5,-262.1"/>
</g>
<!-- 6 -->
<g id="node7" class="node">
<title>6</title>
<ellipse fill="cyan" stroke="cyan" cx="325" cy="-234" rx="27" ry="18"/>
<text text-anchor="middle" x="325" y="-230.3" font-family="Times New Roman,serif" font-size="14.00">&gt;</text>
</g>
<!-- 2&#45;&gt;6 -->
<g id="edge6" class="edge">
<title>2&#45;&gt;6</title>
<path fill="none" stroke="black" d="M268.27,-290.15C278.33,-280.37 291.67,-267.4 302.89,-256.5"/>
<polygon fill="black" stroke="black" points="305.51,-258.83 310.25,-249.35 300.64,-253.81 305.51,-258.83"/>
</g>
<!-- 7 -->
<g id="node8" class="node">
<title>7</title>
<ellipse fill="cyan" stroke="cyan" cx="109" cy="-162" rx="27" ry="18"/>
<text text-anchor="middle" x="109" y="-158.3" font-family="Times New Roman,serif" font-size="14.00">&lt;</text>
</g>
<!-- 5&#45;&gt;7 -->
<g id="edge7" class="edge">
<title>5&#45;&gt;7</title>
<path fill="none" stroke="black" d="M231.75,-222.67C207.4,-210.83 167.28,-191.33 139.57,-177.86"/>
<polygon fill="black" stroke="black" points="140.86,-174.6 130.33,-173.37 137.8,-180.89 140.86,-174.6"/>
</g>
<!-- 8 -->
<g id="node9" class="node">
<title>8</title>
<ellipse fill="cyan" stroke="cyan" cx="181" cy="-162" rx="27.1" ry="18"/>
<text text-anchor="middle" x="181" y="-158.3" font-family="Times New Roman,serif" font-size="14.00">Map</text>
</g>
<!-- 5&#45;&gt;8 -->
<g id="edge8" class="edge">
<title>5&#45;&gt;8</title>
<path fill="none" stroke="black" d="M238.08,-218.5C228.04,-208.73 214.62,-195.69 203.32,-184.7"/>
<polygon fill="black" stroke="black" points="205.51,-181.95 195.9,-177.49 200.63,-186.97 205.51,-181.95"/>
</g>
<!-- 9 -->
<g id="node10" class="node">
<title>9</title>
<ellipse fill="cyan" stroke="cyan" cx="253" cy="-162" rx="27" ry="18"/>
<text text-anchor="middle" x="253" y="-158.3" font-family="Times New Roman,serif" font-size="14.00">,</text>
</g>
<!-- 5&#45;&gt;9 -->
<g id="edge9" class="edge">
<title>5&#45;&gt;9</title>
<path fill="none" stroke="black" d="M253,-215.7C253,-207.98 253,-198.71 253,-190.11"/>
<polygon fill="black" stroke="black" points="256.5,-190.1 253,-180.1 249.5,-190.1 256.5,-190.1"/>
</g>
<!-- 10 -->
<g id="node11" class="node">
<title>10</title>
<ellipse fill="cyan" stroke="cyan" cx="330" cy="-162" rx="32.49" ry="18"/>
<text text-anchor="middle" x="330" y="-158.3" font-family="Times New Roman,serif" font-size="14.00">String</text>
</g>
<!-- 5&#45;&gt;10 -->
<g id="edge10" class="edge">
<title>5&#45;&gt;10</title>
<path fill="none" stroke="black" d="M268.58,-218.83C279.32,-209.07 293.81,-195.9 306.01,-184.8"/>
<polygon fill="black" stroke="black" points="308.6,-187.19 313.64,-177.87 303.89,-182.01 308.6,-187.19"/>
</g>
<!-- 11 -->
<g id="node12" class="node">
<title>11</title>
<ellipse fill="cyan" stroke="cyan" cx="407" cy="-162" rx="27" ry="18"/>
<text text-anchor="middle" x="407" y="-158.3" font-family="Times New Roman,serif" font-size="14.00">&gt;</text>
</g>
<!-- 5&#45;&gt;11 -->
<g id="edge11" class="edge">
<title>5&#45;&gt;11</title>
<path fill="none" stroke="black" d="M274.66,-222.66C279.37,-220.44 284.35,-218.12 289,-216 325.22,-199.5 334.78,-196.5 371,-180 372.79,-179.18 374.63,-178.34 376.49,-177.48"/>
<polygon fill="black" stroke="black" points="378.15,-180.57 385.72,-173.17 375.18,-174.23 378.15,-180.57"/>
</g>
<!-- 12 -->
<g id="node13" class="node">
<title>12</title>
<ellipse fill="cyan" stroke="cyan" cx="27" cy="-90" rx="27" ry="18"/>
<text text-anchor="middle" x="27" y="-86.3" font-family="Times New Roman,serif" font-size="14.00">&lt;</text>
</g>
<!-- 8&#45;&gt;12 -->
<g id="edge12" class="edge">
<title>8&#45;&gt;12</title>
<path fill="none" stroke="black" d="M159.34,-150.66C154.63,-148.44 149.65,-146.12 145,-144 108.78,-127.5 99.22,-124.5 63,-108 61.21,-107.18 59.37,-106.34 57.51,-105.48"/>
<polygon fill="black" stroke="black" points="58.82,-102.23 48.28,-101.17 55.85,-108.57 58.82,-102.23"/>
</g>
<!-- 13 -->
<g id="node14" class="node">
<title>13</title>
<ellipse fill="cyan" stroke="cyan" cx="104" cy="-90" rx="32.49" ry="18"/>
<text text-anchor="middle" x="104" y="-86.3" font-family="Times New Roman,serif" font-size="14.00">String</text>
</g>
<!-- 8&#45;&gt;13 -->
<g id="edge13" class="edge">
<title>8&#45;&gt;13</title>
<path fill="none" stroke="black" d="M165.42,-146.83C154.68,-137.07 140.19,-123.9 127.99,-112.8"/>
<polygon fill="black" stroke="black" points="130.11,-110.01 120.36,-105.87 125.4,-115.19 130.11,-110.01"/>
</g>
<!-- 14 -->
<g id="node15" class="node">
<title>14</title>
<ellipse fill="cyan" stroke="cyan" cx="181" cy="-90" rx="27" ry="18"/>
<text text-anchor="middle" x="181" y="-86.3" font-family="Times New Roman,serif" font-size="14.00">,</text>
</g>
<!-- 8&#45;&gt;14 -->
<g id="edge14" class="edge">
<title>8&#45;&gt;14</title>
<path fill="none" stroke="black" d="M181,-143.7C181,-135.98 181,-126.71 181,-118.11"/>
<polygon fill="black" stroke="black" points="184.5,-118.1 181,-108.1 177.5,-118.1 184.5,-118.1"/>
</g>
<!-- 15 -->
<g id="node16" class="node">
<title>15</title>
<ellipse fill="cyan" stroke="cyan" cx="257" cy="-90" rx="31.4" ry="18"/>
<text text-anchor="middle" x="257" y="-86.3" font-family="Times New Roman,serif" font-size="14.00">Array</text>
</g>
<!-- 8&#45;&gt;15 -->
<g id="edge15" class="edge">
<title>8&#45;&gt;15</title>
<path fill="none" stroke="black" d="M196.38,-146.83C207.05,-137 221.47,-123.72 233.57,-112.58"/>
<polygon fill="black" stroke="black" points="236.14,-114.98 241.12,-105.63 231.39,-109.83 236.14,-114.98"/>
</g>
<!-- 16 -->
<g id="node17" class="node">
<title>16</title>
<ellipse fill="cyan" stroke="cyan" cx="333" cy="-90" rx="27" ry="18"/>
<text text-anchor="middle" x="333" y="-86.3" font-family="Times New Roman,serif" font-size="14.00">&gt;</text>
</g>
<!-- 8&#45;&gt;16 -->
<g id="edge16" class="edge">
<title>8&#45;&gt;16</title>
<path fill="none" stroke="black" d="M202.67,-150.69C207.39,-148.47 212.36,-146.14 217,-144 252.41,-127.67 261.59,-124.33 297,-108 298.79,-107.18 300.63,-106.32 302.48,-105.46"/>
<polygon fill="black" stroke="black" points="304.14,-108.55 311.71,-101.13 301.17,-102.21 304.14,-108.55"/>
</g>
<!-- 17 -->
<g id="node18" class="node">
<title>17</title>
<ellipse fill="cyan" stroke="cyan" cx="185" cy="-18" rx="27" ry="18"/>
<text text-anchor="middle" x="185" y="-14.3" font-family="Times New Roman,serif" font-size="14.00">&lt;</text>
</g>
<!-- 15&#45;&gt;17 -->
<g id="edge17" class="edge">
<title>15&#45;&gt;17</title>
<path fill="none" stroke="black" d="M241.73,-74.15C231.67,-64.37 218.33,-51.4 207.11,-40.5"/>
<polygon fill="black" stroke="black" points="209.36,-37.81 199.75,-33.35 204.49,-42.83 209.36,-37.81"/>
</g>
<!-- 18 -->
<g id="node19" class="node">
<title>18</title>
<ellipse fill="cyan" stroke="cyan" cx="257" cy="-18" rx="27" ry="18"/>
<text text-anchor="middle" x="257" y="-14.3" font-family="Times New Roman,serif" font-size="14.00">Int</text>
</g>
<!-- 15&#45;&gt;18 -->
<g id="edge18" class="edge">
<title>15&#45;&gt;18</title>
<path fill="none" stroke="black" d="M257,-71.7C257,-63.98 257,-54.71 257,-46.11"/>
<polygon fill="black" stroke="black" points="260.5,-46.1 257,-36.1 253.5,-46.1 260.5,-46.1"/>
</g>
<!-- 19 -->
<g id="node20" class="node">
<title>19</title>
<ellipse fill="cyan" stroke="cyan" cx="329" cy="-18" rx="27" ry="18"/>
<text text-anchor="middle" x="329" y="-14.3" font-family="Times New Roman,serif" font-size="14.00">&gt;</text>
</g>
<!-- 15&#45;&gt;19 -->
<g id="edge19" class="edge">
<title>15&#45;&gt;19</title>
<path fill="none" stroke="black" d="M272.27,-74.15C282.33,-64.37 295.67,-51.4 306.89,-40.5"/>
<polygon fill="black" stroke="black" points="309.51,-42.83 314.25,-33.35 304.64,-37.81 309.51,-42.83"/>
</g>
</g>
</svg>
